<svg width="133" height="40" viewBox="0 0 133 40" fill="none" xmlns="http://www.w3.org/2000/svg">
<path d="M20.448 29.44C20.448 30.6 19.568 31.56 18.408 31.6L7.12799 32.24V19.24L15.368 19.6C16.208 19.64 16.848 20.32 16.848 21.16V21.88H17.408V16.08H16.848V17.04C16.848 17.92 16.128 18.6 15.288 18.6H7.12799V7.12L17.728 7.68C18.888 7.72 19.768 8.68 19.768 9.84V10.88H20.328V6.36H3.56799H1.32799V6.92H3.56799V32.44H1.32799V33H3.56799H21.008V28.48H20.448V29.44ZM50.2217 21C50.2217 17.52 48.5417 14.08 43.8217 14.08C40.6217 14.08 38.5817 17.16 38.3417 17.56C37.5017 15.56 35.7417 14.08 32.6217 14.08C30.2217 14.08 28.6617 15.64 27.9017 16.6V13.6L22.3817 15.6L22.5817 16.12L24.6217 15.44V32.36H22.4217V32.92H30.1817V32.36H27.9017V19.12C28.4217 16.32 30.4217 15.08 32.1817 15.08C34.1017 15.08 35.8217 16.44 35.8217 19.68V32.36H33.6217V32.92H41.3817V32.36H39.0217V21C39.0217 20.84 39.0217 20.68 39.0217 20.52V20.6C39.0217 16.8 41.3817 15.08 43.3817 15.08C45.3017 15.08 47.0217 16.44 47.0217 19.68V32.36H44.8217V32.92H52.6217V32.36H50.2217V21ZM81.4327 21C81.4327 17.52 79.7527 14.08 75.0327 14.08C71.8327 14.08 69.7927 17.16 69.5527 17.56C68.7127 15.56 66.9527 14.08 63.8327 14.08C61.4327 14.08 59.8727 15.64 59.1127 16.6V13.6L53.5927 15.6L53.7927 16.12L55.8327 15.44V32.36H53.6327V32.92H61.3927V32.36H59.1127V19.12C59.6327 16.32 61.6327 15.08 63.3927 15.08C65.3127 15.08 67.0327 16.44 67.0327 19.68V32.36H64.8327V32.92H72.5927V32.36H70.2327V21C70.2327 20.84 70.2327 20.68 70.2327 20.52V20.6C70.2327 16.8 72.5927 15.08 74.5927 15.08C76.5127 15.08 78.2327 16.44 78.2327 19.68V32.36H76.0327V32.92H83.8327V32.36H81.4327V21ZM98.9311 30.12V20.6C98.9311 19.04 98.6911 15.8 95.5311 14.32C94.6911 13.96 93.8111 13.6 92.0111 13.6C89.5311 13.6 87.8911 14.88 87.3711 15.32V14.56H86.8911V19.48H87.3711V19.16C87.3711 17.48 88.7311 14.28 92.0111 14.28C94.0511 14.28 95.5311 15.72 95.5311 19.28V20.32C91.8511 20.32 84.7311 22.24 84.7311 27.56C84.7311 31.32 88.3711 33.04 91.6111 33.04C93.0511 33.04 94.8111 32.12 95.5311 31.52L95.8911 32C96.3711 32.56 97.0911 32.92 97.8511 32.92H100.331V32.48C98.7311 32.48 98.9311 31.08 98.9311 30.12ZM95.5311 30.48C95.5311 30.48 94.2111 32.12 91.9311 32.12C89.2511 32.12 87.6111 29.24 88.3311 26.48C89.2111 23.28 92.1311 21.2 95.5311 21.2C95.5311 21.96 95.5311 29.12 95.5311 30.48ZM118.198 21C118.198 17.52 116.518 14.08 111.798 14.08C109.398 14.08 107.838 15.64 107.078 16.6V6.44L101.558 8.4L101.758 8.96L103.798 8.28V32.36H101.598V32.92H109.358V32.36H107.078V19.12C107.598 16.32 109.598 15.08 111.358 15.08C113.278 15.08 114.998 16.44 114.998 19.68V32.36H112.798V32.92H120.558V32.36H118.198V21Z" fill="#121212"/>
<path d="M125.9 26.3924C126.751 25.5947 127.735 25.1958 128.852 25.1958C130.022 25.1958 131.006 25.5947 131.803 26.3924C132.601 27.1902 133 28.174 133 29.344C133 30.514 132.601 31.4979 131.803 32.2956C131.006 33.0933 130.022 33.4922 128.852 33.4922C127.735 33.4922 126.751 33.0933 125.9 32.2956C125.102 31.4979 124.704 30.514 124.704 29.344C124.704 28.174 125.102 27.1902 125.9 26.3924Z" fill="#10ACA2"/>
</svg>
